<svg width="1200" height="420" viewBox="0 0 1200 420" fill="none" xmlns="http://www.w3.org/2000/svg">
  <defs>
    <linearGradient id="bg" x1="70" y1="30" x2="1090" y2="390" gradientUnits="userSpaceOnUse">
      <stop stop-color="#0F172A"/>
      <stop offset="1" stop-color="#101C35"/>
    </linearGradient>
    <linearGradient id="cardA" x1="0" y1="0" x2="1" y2="1">
      <stop stop-color="#22D3EE"/>
      <stop offset="1" stop-color="#2563EB"/>
    </linearGradient>
    <linearGradient id="cardB" x1="0" y1="0" x2="1" y2="1">
      <stop stop-color="#C084FC"/>
      <stop offset="1" stop-color="#7C3AED"/>
    </linearGradient>
    <linearGradient id="cardC" x1="0" y1="0" x2="1" y2="1">
      <stop stop-color="#F59E0B"/>
      <stop offset="1" stop-color="#EA580C"/>
    </linearGradient>
    <linearGradient id="cardD" x1="0" y1="0" x2="1" y2="1">
      <stop stop-color="#34D399"/>
      <stop offset="1" stop-color="#059669"/>
    </linearGradient>
    <filter id="glow" x="-20%" y="-20%" width="140%" height="140%">
      <feGaussianBlur stdDeviation="14" result="blur"/>
      <feMerge>
        <feMergeNode in="blur"/>
        <feMergeNode in="SourceGraphic"/>
      </feMerge>
    </filter>
  </defs>

  <rect x="18" y="18" width="1164" height="384" rx="28" fill="url(#bg)"/>
  <rect x="18" y="18" width="1164" height="384" rx="28" stroke="#334155" stroke-width="2"/>

  <g opacity="0.35">
    <path d="M140 340L390 120L640 340L890 120L1060 270" stroke="#334155" stroke-width="2"/>
    <path d="M120 300L350 100L600 320L850 100L1040 230" stroke="#1E293B" stroke-width="2"/>
    <path d="M155 375L400 160L645 375L900 160L1045 290" stroke="#1E293B" stroke-width="2"/>
  </g>

  <g filter="url(#glow)">
    <path d="M600 92L735 168L600 246L465 168L600 92Z" fill="#12213D" stroke="#38BDF8" stroke-width="3"/>
    <path d="M600 246V314L465 236V168L600 246Z" fill="#0B1325" stroke="#38BDF8" stroke-width="3"/>
    <path d="M600 246V314L735 236V168L600 246Z" fill="#15284A" stroke="#38BDF8" stroke-width="3"/>
    <circle cx="600" cy="204" r="6" fill="#E2E8F0"/>
  </g>

  <g>
    <line x1="600" y1="170" x2="298" y2="104" stroke="#67E8F9" stroke-width="3" stroke-dasharray="8 8"/>
    <line x1="600" y1="170" x2="905" y2="112" stroke="#C084FC" stroke-width="3" stroke-dasharray="8 8"/>
    <line x1="600" y1="255" x2="330" y2="324" stroke="#F59E0B" stroke-width="3" stroke-dasharray="8 8"/>
    <line x1="600" y1="255" x2="906" y2="314" stroke="#34D399" stroke-width="3" stroke-dasharray="8 8"/>
  </g>

  <g transform="translate(156 62)">
    <rect width="254" height="84" rx="22" fill="#0B1325" stroke="#164E63" stroke-width="2"/>
    <rect x="16" y="16" width="92" height="52" rx="16" fill="url(#cardA)"/>
    <text x="128" y="34" fill="#E2E8F0" font-family="Arial, sans-serif" font-size="24" font-weight="700">Interface</text>
    <text x="128" y="58" fill="#94A3B8" font-family="Arial, sans-serif" font-size="14">React, TypeScript, product UI</text>
  </g>

  <g transform="translate(790 70)">
    <rect width="254" height="84" rx="22" fill="#0B1325" stroke="#5B21B6" stroke-width="2"/>
    <rect x="16" y="16" width="92" height="52" rx="16" fill="url(#cardB)"/>
    <text x="128" y="34" fill="#E2E8F0" font-family="Arial, sans-serif" font-size="24" font-weight="700">Systems</text>
    <text x="128" y="58" fill="#94A3B8" font-family="Arial, sans-serif" font-size="14">FastAPI, APIs, real-time flows</text>
  </g>

  <g transform="translate(180 280)">
    <rect width="254" height="84" rx="22" fill="#0B1325" stroke="#9A3412" stroke-width="2"/>
    <rect x="16" y="16" width="92" height="52" rx="16" fill="url(#cardC)"/>
    <text x="128" y="34" fill="#E2E8F0" font-family="Arial, sans-serif" font-size="24" font-weight="700">Data</text>
    <text x="128" y="58" fill="#94A3B8" font-family="Arial, sans-serif" font-size="14">Python, analytics, automation</text>
  </g>

  <g transform="translate(792 280)">
    <rect width="254" height="84" rx="22" fill="#0B1325" stroke="#047857" stroke-width="2"/>
    <rect x="16" y="16" width="92" height="52" rx="16" fill="url(#cardD)"/>
    <text x="128" y="34" fill="#E2E8F0" font-family="Arial, sans-serif" font-size="24" font-weight="700">Delivery</text>
    <text x="128" y="58" fill="#94A3B8" font-family="Arial, sans-serif" font-size="14">Prototype, ship, iterate</text>
  </g>

  <g>
    <text x="600" y="52" text-anchor="middle" fill="#E2E8F0" font-family="Arial, sans-serif" font-size="30" font-weight="700">Baek Junho</text>
    <text x="600" y="78" text-anchor="middle" fill="#94A3B8" font-family="Arial, sans-serif" font-size="16">Interactive product builder with a systems mindset</text>
    <text x="600" y="366" text-anchor="middle" fill="#67E8F9" font-family="Arial, sans-serif" font-size="15">Interfaces people can feel. Systems that hold up. Experiments that learn.</text>
  </g>
</svg>
